<?xml version="1.0" encoding="UTF-8" standalone="no"?>
<!DOCTYPE svg PUBLIC "-//W3C//DTD SVG 1.1//EN" "http://www.w3.org/Graphics/SVG/1.1/DTD/svg11.dtd">
<svg xmlns="http://www.w3.org/2000/svg" xmlns:xl="http://www.w3.org/1999/xlink" version="1.1" viewBox="0 0 300 299.99904" width="25pc" height="299.99904pt" xmlns:dc="http://purl.org/dc/elements/1.1/">
  <metadata> Produced by OmniGraffle 7.4.1 
    <dc:date>2021-07-19 09:15:49 +0000</dc:date>
  </metadata>
  <defs/>
  <g stroke="none" stroke-opacity="1" stroke-dasharray="none" fill="none" fill-opacity="1">
    <title>Canvas 1</title>
    <g>
      <title>Layer 1</title>
      <path d="M 50.123337 123.10676 C 50.123337 115.36718 53.503755 110.41325 57.366014 107.3641 C 61.22827 104.31495 141.67318 41.811096 143.92428 40.034307 C 146.17538 38.24999 148.10275 37.482054 150 37.482054 C 151.83702 37.482054 153.81709 38.24999 156.07572 40.034307 C 158.32682 41.811096 238.6889 104.31495 242.5587 107.3641 C 246.41343 110.41325 249.79385 115.36718 249.79385 123.10676 L 249.79385 256.50903 C 249.79385 262.8859 246.51883 267.3128 239.87846 267.3128 L 150 267.3128 L 60.046256 267.3128 C 53.39835 267.3128 50.123337 262.8859 50.123337 256.50903 Z M 293.85974 125.76441 C 292.60996 124.77814 261.80976 100.22682 261.80976 100.22682 L 261.80976 55.14455 C 261.80976 51.8093 260.49223 50.86068 258.1282 50.86068 L 237.94356 50.86068 C 235.21062 50.86068 233.5543 51.39522 233.5543 55.14455 L 233.5543 78.06965 L 233.54676 78.06965 C 197.48395 49.543143 158.372 18.607427 156.88882 17.43294 C 153.93002 15.091492 152.10053 14.481661 150 14.481661 C 147.91453 14.481661 146.06998 15.091492 143.11118 17.43294 C 140.15237 19.774387 10.077809 122.6475 6.1402625 125.76441 C 1.344436 129.55138 2.692086 135.0248 8.037513 135.0248 L 33.432054 135.0248 L 33.432054 273.03468 C 33.432054 279.28356 35.314246 282.7769 39.27438 284.38807 C 40.968353 285.0807 42.93336 285.51738 45.470557 285.51738 L 150 285.51738 L 254.52944 285.51738 C 257.06664 285.51738 259.03165 285.0807 260.72562 284.38807 C 264.68575 282.7769 266.56795 279.28356 266.56795 273.03468 L 266.56795 135.0248 L 291.9625 135.0248 C 297.3079 135.0248 298.65556 129.55138 293.85974 125.76441" fill="black"/>
      <path d="M 97.10437 140.64201 C 97.10437 137.37453 97.10437 134.79216 100.64289 131.94628 C 102.97681 130.07162 144.87441 96.96009 146.13172 95.97382 C 147.3815 94.98755 148.61621 94.46054 150.0015 94.46054 C 151.31151 94.46054 152.61399 94.98755 153.8713 95.97382 C 155.1286 96.96009 197.01867 130.07162 199.3526 131.94628 C 202.89864 134.79216 202.89864 137.37453 202.89864 140.64201 L 202.89864 213.6786 C 202.89864 218.31633 200.31628 220.12324 196.7928 220.12324 L 150.0015 220.12324 L 103.2102 220.12324 C 99.67921 220.12324 97.10437 218.31633 97.10437 213.6786 Z M 87.39978 238.1471 L 150.0015 238.1471 L 212.5957 238.1471 C 217.13555 238.1471 220.22234 235.6024 220.22234 230.14403 L 220.22234 134.34796 C 220.22234 129.0477 218.97257 125.99856 215.2157 123.00963 C 213.0926 121.33072 156.13745 76.28609 154.61664 75.08901 C 153.09583 73.88441 151.46209 73.25952 150.0015 73.25952 C 148.52587 73.25952 146.90718 73.88441 145.37884 75.08901 C 143.85803 76.28609 86.90288 121.33072 84.77977 123.00963 C 81.022915 125.99856 79.78067 129.0477 79.78067 134.34796 L 79.78067 230.14403 C 79.78067 235.6024 82.85993 238.1471 87.39978 238.1471" fill="black"/>
      <path d="M 138.03829 158.02293 C 138.03829 157.11948 138.41473 156.18591 139.21278 155.53844 C 139.63439 155.19211 148.60868 148.14519 148.93242 147.89674 C 149.24863 147.64076 149.73047 147.50524 150.01656 147.50524 C 150.30266 147.50524 150.7845 147.64076 151.10823 147.89674 C 151.42444 148.14519 160.40627 155.19211 160.82035 155.53844 C 161.6184 156.18591 161.99484 157.11948 161.99484 158.02293 L 161.99484 177.38693 C 161.99484 178.75716 161.30972 179.06584 160.34604 179.06584 L 150.01656 179.06584 L 139.68709 179.06584 C 138.72341 179.06584 138.03829 178.75716 138.03829 177.38693 Z M 124.62202 196.66058 L 150.0015 196.66058 L 175.39605 196.66058 C 177.7149 196.66058 179.3637 195.91523 179.3637 192.61763 L 179.3637 151.62348 C 179.3637 149.44013 178.45273 147.19656 176.54042 145.6381 C 175.52404 144.80994 153.39698 127.84762 152.62152 127.23026 C 151.83853 126.62043 150.69415 126.27411 150.0015 126.27411 C 149.30886 126.27411 148.15696 126.62043 147.3815 127.23026 C 146.60603 127.84762 124.50156 144.80994 123.47765 145.6381 C 121.56534 147.19656 120.66189 149.44013 120.66189 151.62348 L 120.66189 192.61763 C 120.66189 195.91523 122.31069 196.66058 124.62202 196.66058" fill="black"/>
    </g>
  </g>
</svg>
