<?xml version="1.0" encoding="UTF-8" standalone="no"?>
<!DOCTYPE svg PUBLIC "-//W3C//DTD SVG 1.1//EN" "http://www.w3.org/Graphics/SVG/1.1/DTD/svg11.dtd">
<svg xmlns="http://www.w3.org/2000/svg" xmlns:xl="http://www.w3.org/1999/xlink" version="1.1" viewBox="92.39 89.53 500 500" width="500pt" height="500pt" xmlns:dc="http://purl.org/dc/elements/1.1/">
  <metadata> Produced by OmniGraffle 7.4.1 
    <dc:date>2021-07-19 09:16:24 +0000</dc:date>
  </metadata>
  <defs/>
  <g stroke="none" stroke-opacity="1" stroke-dasharray="none" fill="none" fill-opacity="1">
    <title>Canvas 1</title>
    <g>
      <title>Layer 1</title>
      <path d="M 443.486 585.295 L 241.294 585.295 C 161.53382 585.295 96.625 520.39814 96.625 440.626 L 96.625 238.434 C 96.625 158.67382 161.52585 93.765 241.294 93.765 L 443.486 93.765 C 523.2462 93.765 588.155 158.66186 588.155 238.434 L 588.155 440.626 C 588.155 520.4021 523.25415 585.295 443.486 585.295 Z M 241.294 107.20459 C 168.9276 107.20459 110.0606 166.07955 110.0606 238.43798 L 110.0606 440.63 C 110.0606 512.9924 168.9276 571.8634 241.294 571.8634 L 443.486 571.8634 C 515.8524 571.8634 574.7194 512.9884 574.7194 440.63 L 574.7194 238.43798 C 574.7194 166.07557 515.8524 107.20459 443.486 107.20459 Z" fill="black"/>
      <path d="M 242.51334 312.63723 C 242.51334 304.89766 245.89375 299.94373 249.756 296.89458 C 253.61827 293.84542 334.0632 231.34157 336.3143 229.56479 C 338.5654 227.78047 340.49275 227.01253 342.39 227.01253 C 344.227 227.01253 346.2071 227.78047 348.4657 229.56479 C 350.7168 231.34157 431.0789 293.84542 434.9487 296.89458 C 438.80343 299.94373 442.18385 304.89766 442.18385 312.63723 L 442.18385 446.0395 C 442.18385 452.4164 438.90883 456.8433 432.26846 456.8433 L 342.39 456.8433 L 252.43626 456.8433 C 245.78835 456.8433 242.51334 452.4164 242.51334 446.0395 Z M 486.24974 315.2949 C 484.99996 314.30862 454.19976 289.7573 454.19976 289.7573 L 454.19976 244.67503 C 454.19976 241.33978 452.88223 240.39116 450.5182 240.39116 L 430.33356 240.39116 C 427.6006 240.39116 425.9443 240.9257 425.9443 244.67503 L 425.9443 267.60013 L 425.93676 267.60013 C 389.87395 239.07362 350.762 208.1379 349.27882 206.96342 C 346.32 204.62197 344.49053 204.01214 342.39 204.01214 C 340.30453 204.01214 338.46 204.62197 335.50118 206.96342 C 332.54237 209.30487 202.4678 312.17798 198.53026 315.2949 C 193.73444 319.08186 195.08209 324.55528 200.42751 324.55528 L 225.82205 324.55528 L 225.82205 462.56516 C 225.82205 468.81404 227.70425 472.3074 231.66438 473.91854 C 233.35835 474.6112 235.32336 475.04786 237.86056 475.04786 L 342.39 475.04786 L 446.91944 475.04786 C 449.45664 475.04786 451.42165 474.6112 453.1156 473.91854 C 457.07575 472.3074 458.95795 468.81404 458.95795 462.56516 L 458.95795 324.55528 L 484.3525 324.55528 C 489.6979 324.55528 491.04556 319.08186 486.24974 315.2949" fill="black"/>
      <path d="M 289.49437 330.1725 C 289.49437 326.905 289.49437 324.32264 293.0329 321.47676 C 295.3668 319.6021 337.2644 286.49057 338.5217 285.5043 C 339.7715 284.51803 341.0062 283.991 342.3915 283.991 C 343.7015 283.991 345.004 284.51803 346.2613 285.5043 C 347.5186 286.49057 389.40867 319.6021 391.7426 321.47676 C 395.28864 324.32264 395.28864 326.905 395.28864 330.1725 L 395.28864 403.2091 C 395.28864 407.8468 392.70628 409.6537 389.1828 409.6537 L 342.3915 409.6537 L 295.6002 409.6537 C 292.0692 409.6537 289.49437 407.8468 289.49437 403.2091 Z M 279.78978 427.6776 L 342.3915 427.6776 L 404.9857 427.6776 C 409.52555 427.6776 412.61234 425.13287 412.61234 419.6745 L 412.61234 323.87844 C 412.61234 318.5782 411.36257 315.52903 407.6057 312.5401 C 405.4826 310.8612 348.52745 265.81657 347.00664 264.6195 C 345.48583 263.4149 343.8521 262.79 342.3915 262.79 C 340.91587 262.79 339.2972 263.4149 337.76884 264.6195 C 336.24803 265.81657 279.2929 310.8612 277.16977 312.5401 C 273.4129 315.52903 272.17067 318.5782 272.17067 323.87844 L 272.17067 419.6745 C 272.17067 425.13287 275.24993 427.6776 279.78978 427.6776" fill="black"/>
      <path d="M 330.4283 347.5534 C 330.4283 346.64996 330.80473 345.7164 331.60278 345.0689 C 332.0244 344.7226 340.9987 337.67566 341.32242 337.4272 C 341.63863 337.17124 342.12047 337.0357 342.40656 337.0357 C 342.69266 337.0357 343.1745 337.17124 343.49823 337.4272 C 343.81444 337.67566 352.79627 344.7226 353.21035 345.0689 C 354.0084 345.7164 354.38484 346.64996 354.38484 347.5534 L 354.38484 366.9174 C 354.38484 368.28764 353.6997 368.59632 352.73604 368.59632 L 342.40656 368.59632 L 332.0771 368.59632 C 331.1134 368.59632 330.4283 368.28764 330.4283 366.9174 Z M 317.01202 386.19106 L 342.3915 386.19106 L 367.78605 386.19106 C 370.1049 386.19106 371.7537 385.4457 371.7537 382.1481 L 371.7537 341.15396 C 371.7537 338.9706 370.84273 336.72704 368.9304 335.1686 C 367.91404 334.3404 345.787 317.3781 345.0115 316.76074 C 344.22853 316.1509 343.08415 315.8046 342.3915 315.8046 C 341.69886 315.8046 340.54696 316.1509 339.7715 316.76074 C 338.99603 317.3781 316.89156 334.3404 315.86765 335.1686 C 313.95534 336.72704 313.0519 338.9706 313.0519 341.15396 L 313.0519 382.1481 C 313.0519 385.4457 314.7007 386.19106 317.01202 386.19106" fill="black"/>
    </g>
  </g>
</svg>
